<?xml version="1.0" encoding="utf-8"?>
<!-- Generator: Adobe Illustrator 23.0.1, SVG Export Plug-In . SVG Version: 6.00 Build 0)  -->
<svg version="1.1" id="Layer_1" xmlns="http://www.w3.org/2000/svg" xmlns:xlink="http://www.w3.org/1999/xlink" x="0px" y="0px"
	 viewBox="0 0 4000 4000" style="enable-background:new 0 0 4000 4000;" xml:space="preserve">
<style type="text/css">
	.st0{fill:#13CAC3;}
	.st1{display:none;fill:#13CAC3;}
	.st2{fill:none;stroke:#13CAC3;stroke-width:100;stroke-linecap:square;stroke-miterlimit:10;}
</style>
<g>
	<g>
		<path class="st0" d="M1949.6,221.7c6.1-0.4,12.3-0.1,18.5-0.2c15.3-1.1,30.7-0.3,46-0.5c9-0.3,17.9,0.8,26.9,0.5
			c148.9,3.3,297.6,25.2,441.1,65.6c163.3,45.8,319.8,115.3,463.3,205.6c64.6,40.5,126.5,85.3,185.3,133.7
			c43.7,36.1,85.9,74,125.7,114.3c51.1,50.4,98.6,104.4,143.1,160.8c98.2,125,179.7,263.1,241.3,409.6
			c82.9,197,129.5,409.2,137,622.8c0.7,5.3-0.2,10.7,0.6,16c0.4,6,0.1,12.1,0.2,18.1c1,15,0.3,30,0.5,45c0.3,9.4-0.9,18.7-0.5,28.1
			c-2.3,101.5-13.1,203-32.7,302.8c-32.9,168.6-90.7,332.3-170.8,484.2c-72.3,137.3-162.7,265-268,379
			c-13.3,14.3-26.6,28.6-40.6,42.3c-94.6,96.3-200.4,181.4-314.3,253.8c-138.8,88.1-289.9,156.9-447.6,203.4
			c-142.4,42.1-290.3,66-438.7,71.3c-6.3,0.5-12.6-0.1-18.8,0.8c-11.7-0.4-23.3,0.7-35,0.5c-9.3,0-18.7,0-28,0c-8,0.3-16-0.9-24-0.5
			c-183.8-3.9-367.3-36.4-541.1-96.6c-246.8-84.9-474-225.7-660.7-408c-11.5-11.5-23-23-34.5-34.5
			c-107.6-110.8-200.9-235.6-276.4-370.4c-95.8-170.5-162.9-357.1-197.6-549.5c-14.4-79.4-23.3-159.8-26.9-240.4
			c-0.2-8.3-0.9-16.6-0.7-25c-1.2-10,0.2-20.1-1-30.1c0.2-19-0.5-38,0.5-56.9c0.1-5.6-0.2-11.3,0.1-16.9c0.9-5.7-0.1-11.6,0.7-17.3
			c6.8-189.6,44.3-378.1,110.8-555.8c86.6-232.1,222.8-445.6,396.5-622.3c10.2-10.2,20.4-20.4,30.6-30.6
			c119.5-116.2,255.5-215.7,402.6-294.2c154.3-82.5,321-141.9,492.7-175.5C1752.3,235.3,1850.9,224.5,1949.6,221.7z M1969,261.5
			c-6.6,0.1-13.3-0.4-19.9,0.4c-4.9,0.4-9.8-0.3-14.7,0.5c-217.1,7.8-432.7,56.9-631.7,144.2C1155.3,471.1,1017.1,556.4,893,659
			c-38,31.5-74.9,64.5-110,99.2c-10.8,9.8-20.7,20.5-30.9,31c-165.7,170.3-296,375-379.7,597.4c-65.5,173.3-102.6,357.3-109.9,542.4
			c-0.1,5.7-0.8,11.4-0.5,17.1c-1.2,10.3,0.1,20.6-1,30.9c0.2,18.3-0.5,36.7,0.5,55c-0.2,15.3,0.7,30.6,1.3,45.9
			c3.1,69.5,10.2,138.9,21.6,207.6c31.6,192,96.1,378.6,189.8,549.2c74.3,135.7,167,261.4,274.5,372.8c7.7,7.3,14.5,15.5,22.3,22.8
			c6.6,7,14.1,13.2,20.8,20.2c170.6,165.1,375.3,295,597.6,378.2c174.3,65.5,359.2,102.4,545.2,109.1c6.5,0.7,13-0.1,19.5,0.8
			c12.7-0.4,25.3,0.8,38,0.5c12.7-0.2,25.4,0.5,38-0.5c6.6-0.1,13.3,0.3,19.9-0.3c129.3-3.6,258.3-21.6,383.6-53.8
			c3.4-0.7,6.8-2.5,10.4-2c0.1-0.6,0.2-1.8,0.3-2.4c0.3,0.3,0.9,1,1.1,1.4c13.4-3.4,26.7-7.6,40.2-10.9c-9.4-16-18.6-32.1-27.9-48.1
			c-80.9-140-161.7-280.1-242.6-420.2c-95.6-34.8-191.1-69.8-286.7-104.5c-7.6-13.7-15.7-27.1-23.6-40.6
			c-41.2-70-83.9-139.1-128-207.3c-5.8,2.6-11.1,6.2-16.8,9.2c-10.3,5.9-20.7,11.5-30.8,17.6c7.6,14.1,15.7,27.9,23.5,41.9
			c5.7,9.1,8.4,20.3,6.6,31c-2.3,14.2-11.3,27.2-24.3,33.6c-37.3,21.1-74.7,42.2-112,63.3c-6.1,3.3-12.1,7.4-19.1,8.7
			c-18.9,5-40.1-4.6-49.6-21.6c-41.5-73.5-83.1-147-124.6-220.5c-3.5-6.6-8-12.9-9.6-20.3c-3.4-13.3-0.1-28,8.3-38.8
			c4-4.6,8.5-8.9,13.9-11.8c35.4-20,70.7-40,106.1-59.9c9.2-4.9,17.9-11.5,28.5-13.3c8.4-1.1,17.3-0.7,25.1,2.8
			c9.4,3.8,17.4,11,22.4,19.8c6.2,11.1,12.5,22.2,18.8,33.3c4.1,6.9,7.6,14.3,12.2,20.9c12.7-7.2,25.3-14.4,38-21.4
			c-56.2-82.4-114.8-163.1-175.6-242.2c-24.7,14.5-49.5,28.6-74.2,42.9c5.8,11,12.4,21.6,18.5,32.5c4.4,7.9,9.9,15.4,11.7,24.4
			c4.8,19.8-6.3,41.5-24.5,50.3c-35.5,20.6-71.1,41.1-106.6,61.6c-8,4.4-15.7,10-24.9,11.5c-18.2,3.9-38-5.4-47.3-21.4
			c-43.5-75.2-86.8-150.4-130.3-225.6c-5.8-9.3-9.2-20.7-7.3-31.7c1.5-10.6,6.9-20.7,15-27.7c5-4.5,11.3-7.4,17-10.9
			c36.9-21.3,73.7-42.6,110.6-63.8c11.6-6.9,26.3-7.9,38.8-3c10.4,4,19,12.1,24.2,22c9.9,17.3,19.9,34.4,29.8,51.7
			c9.8-4.8,19-10.9,28.6-16.1c8.8-5.3,17.9-10,26.5-15.6c-0.9-0.9-1.7-1.9-2.5-2.8c-55-66.9-111.7-132.5-170.4-196.3
			c-8.9-9.4-17.3-19.2-26.6-28.2c-31.3,18.2-62.8,36.3-94.2,54.4c6.1,11,12.6,21.9,18.8,32.8c4.4,7.9,10,15.6,11.6,24.8
			c3.2,15-2.2,31.5-13.5,41.8c-3.7,3.9-8.5,6.4-13.1,9.1c-35.5,20.4-70.9,41-106.4,61.4c-9,5.4-18.5,11.3-29.3,11.1
			c-13.5,0.9-27.2-5.1-36.1-15.2c-4.1-4.6-6.8-10.1-9.9-15.4c-42.1-72.9-84.2-145.8-126.3-218.8c-4-7-6.9-14.9-6.7-23.1
			c-0.6-16.1,8.7-31.8,22.5-39.7c37.1-21.5,74.3-42.9,111.4-64.4c6.5-3.6,12.6-8,19.9-9.7c18.7-5.4,39.9,3.4,50,19.9
			c10.7,18.5,21.5,37,32,55.6c20.6-11.7,41.2-23.5,61.5-35.5c-2.1-2.4-4.6-4.5-7-6.6c-5.8-5.6-11.3-11.4-17.1-17
			c-5.6-4.6-10.2-10.4-15.8-14.9c-10-10-20.5-19.5-30.8-29.3c-55.4-51.7-112.5-101.7-171.8-149c-16.5-13.3-25.5-35.4-22.8-56.4
			c2.3-19.3,13.8-37.3,30.7-47.1c15.2-8.8,30.5-17.6,45.8-26.4c15-8.3,29.1-18.1,42.8-28.3c15.6-11.4,30.3-24.1,44.3-37.4
			c28.9-28.2,54.3-61.1,67.7-99.6c6.3-18.3,9.6-37.7,9.2-57.1c-0.5-30.6-10.7-60.5-26-86.8c-7.3-12.4-10.2-26.9-10.6-41.2
			c0.5-22.6,7.5-44.6,17.1-65c16.5-34.6,39.6-65.6,64.6-94.5c26.4-30.6,55.4-58.7,85.8-85.3c29.1-25.4,59.5-49.4,91.1-71.7
			c34.5-24.4,70.4-46.9,108-66.2c36.2-18.9,73.7-35.4,111.8-50.1c39.8-15.3,80.5-28.4,122-38.5c41.8-10,84.6-17.2,127.7-17.2
			c22.6,0.6,45.5,2.8,66.9,10.6c15.9,5.7,31.1,14.8,41.9,28.1c6.2,7.2,10.1,16,15.5,23.7c15.3,23,35.7,42.7,60,55.9
			c18.7,10.2,39.5,16.3,60.7,18.9c39.8,4.6,80.2-2.3,118.2-14.2c27.5-8.8,54.2-20.2,79.7-33.6c13.2-7.5,26.3-15.2,39.5-22.8
			c10.9-6,21.4-13.7,33.9-16c27.2-6.4,57.3,8.3,69.7,33.1c6.3,11.3,6.9,24.5,9,36.9c15.9,101,38.1,200.9,63.6,299.9
			c6.2-2.8,11.8-6.7,17.8-9.9c12.3-7.1,24.5-14.2,36.8-21.2c2.3-1.4,4.9-2.6,6.8-4.5c-10.5-17.6-20.5-35.5-30.9-53.2
			c-7-11.5-8.5-26.2-3.7-38.8c3.7-10.3,11.4-19.1,20.9-24.3c35.6-20.6,71.3-41.2,106.9-61.7c8.3-4.6,16.2-10.5,25.8-12.3
			c18.3-4.1,38.6,5.1,47.9,21.3c44.2,76.5,88.4,153.1,132.6,229.7c4.6,8.8,6.8,19.2,4.7,29c-2,12.6-9.8,23.9-20.5,30.7
			c-40.8,23.7-81.8,47.2-122.6,70.9c-10.8,5.9-24.1,7.3-35.7,3.3c-9.9-3.3-18.7-10.1-24.2-18.9c-8.6-14.5-16.8-29.1-25.3-43.6
			c-0.7-2.1-2.7-0.8-3.8,0c-30.5,17.7-61.1,35.3-91.6,52.9c29.5,96.4,61.9,191.9,97.6,286.1c18.4-10.3,36.6-20.8,54.8-31.6
			c-10.7-18.8-21.8-37.4-32.3-56.3c-11.1-19.8-3.3-47.1,16-58.8c40.6-23.5,81.2-46.9,121.8-70.4c10.6-6.3,24-8,35.8-4.1
			c9.8,2.9,18.3,9.5,24.1,17.8c4.1,6.6,7.9,13.5,11.8,20.2c40.7,70.6,81.5,141.1,122.2,211.7c9.5,16.6,6.5,38.9-6.8,52.5
			c-5.9,6.6-14.1,10.2-21.5,14.7c-36.4,21-72.7,42-109.1,63c-16.8,10.1-40.2,7.3-53.9-6.8c-6.6-5.9-10.1-14.2-14.6-21.6
			c-6.2-10.6-12.2-21.2-18.4-31.8c-25,13.8-49.4,28.6-74.3,42.5c5.2,13.9,11.3,27.5,17,41.2c33,78.2,68.1,155.6,104.8,232.2
			c12.5-7.6,25.1-15.1,37.8-22.2c-7.7-14-16.2-27.6-24.2-41.4c-4.9-8.8-11.3-17.1-13.1-27.2c-3.9-18.1,5.1-37.8,20.9-47.3
			c40.7-24,81.5-48.1,122.2-72.1c19.2-10.6,45.4-4.1,57.7,13.9c5,7.7,9.4,15.8,14.1,23.7c41,69.5,81.9,138.9,122.9,208.4
			c4.3,8.7,6.4,18.7,4.5,28.3c-1.4,9.3-6.2,17.9-12.7,24.6c-6.5,6.3-14.9,10.1-22.4,14.9c-35.9,21.1-71.6,42.3-107.5,63.3
			c-16.7,9.6-39.6,6.5-53-7.4c-6.9-6.2-10.4-15-15.4-22.6c-5.8-10.1-12-20-17.6-30.2c-8,3.9-15.3,9-23.1,13.3
			c-8,4.9-16.4,9.4-24.3,14.5c43.6,85.2,89.3,169.3,137.1,252.2c0.7,1.4,2,2.8,1.6,4.6c-17.6,99.7-34.9,199.4-52.6,299.1
			c51.9,89.7,103.6,179.4,155.5,269.1c39.1,68,78.6,135.8,117.6,203.9c3.4-3.2,6.6-6.6,10.3-9.5c6.3-6.8,14.1-12.5,19.6-19.8
			l-0.1-0.8l0.7,0.2c5.9-3.8,10.2-9.5,15.3-14.2c6.2-5.8,11.6-12.3,17.7-18.2c170.7-175.5,303.9-387.6,387.3-617.8
			c64.5-177.3,99.3-365.4,103.4-554c-0.4-7.7,0.7-15.4,0.5-23.1c0-13,0-26,0-39.1c-1.1-8.9,0-17.9-0.8-26.8
			c-2.9-101.5-14.5-202.8-35-302.3c-35.1-170.9-96.4-336.5-181.1-489.1c-74.1-133.8-166-257.8-272.3-367.6
			c-6.7-6.3-12.5-13.4-19.2-19.7c-7.5-7.9-15.8-14.9-23.3-22.7C3123.8,668,3032,595.6,2934,533.1
			c-147.8-94.4-309.9-166.1-479.2-211.9c-135.2-36.6-275-56.5-414.9-59.7c-8.7,0.4-17.3-0.8-26-0.5
			C1999,261.2,1983.9,260.5,1969,261.5z M2162.8,1347.4c-23.6,2.2-46.2,14-61.6,32c-16.9,19.5-25.1,46.3-22,71.9
			c2.5,23.2,14.4,45.2,32.1,60.4c1.6,2,1.8,4.8,2.8,7.1c156.3,477.9,312.9,955.8,469.2,1433.7c1.5,4.1,2.5,8.5,4.6,12.4
			c61.5,106.5,123,213.1,184.6,319.6c39.9,69.3,80.1,138.5,119.9,207.9c11.7-6.6,23.1-13.8,34.4-21.1
			c-100.7-174.3-201.3-348.7-302-523.1c-2.2-3.9-3.1-8.4-4.6-12.5c-124.2-379.4-248.4-758.9-372.6-1138.3
			c-28.7-88-57.8-175.9-86.3-264c30.4,3.6,62.3-8.6,82-32.1c14.9-17.3,23.3-40.4,22.2-63.3c0-25.1-11.7-49.7-30-66.6
			C2216.2,1353.6,2189.1,1344.6,2162.8,1347.4z M2383.9,1781.7c-19.3,7.7-35.7,22.1-45.9,40.1c-9.6,16.6-13.7,36.3-11.9,55.3
			c1.9,21.5,11.6,42.2,26.9,57.4c1.4,1.5,3.5,2.6,4.2,4.7c93.8,330.3,187.7,660.7,281.5,991c0.9,3.1,2.9,5.8,4.4,8.7
			c100.3,173.8,200.8,347.6,301,521.5c11.3-7.4,22.4-14.8,33.6-22.4c-97.6-168.7-194.9-337.6-292.4-506.4c-3.5-6.9-8.7-13-10.4-20.6
			c-64.6-227.4-129.2-454.8-193.8-682.3c-25.5-89.2-50.6-178.5-76.2-267.7c6.6,0.2,13.3,1.6,19.9,0.6c26.7-1.3,52.3-15.1,68.5-36.3
			c13-16.8,19.9-38.4,19.2-59.6c-0.3-18.8-6.7-37.3-17.7-52.5c-13.5-18.9-34.4-32.2-57.2-36.7
			C2419.9,1773.3,2400.9,1774.6,2383.9,1781.7z M1361.9,1800.2c-13.9,7.7-25.9,18.8-34.2,32.4c-11.3,18.2-16.2,40.3-13.4,61.6
			c3.8,32.9,26.7,62.6,57.5,74.7c10.8,4.3,22.4,6.9,34.1,6.6c31.9,1.1,63.5-16.3,80.3-43.4c2.8-4,4.3-8.7,7.1-12.7
			c326.4,364,652.6,728.1,979,1092c5.6,6.8,12.7,12.6,16.6,20.6c99.7,172.8,199.4,345.5,299.2,518.2c12.1-5.9,23.8-12.5,35.8-18.6
			c-19.5-33.1-38.5-66.6-57.8-99.8c-81.8-141.8-163.7-283.6-245.6-425.4c-3.4-6.4-9-11.1-13.5-16.6
			c-222.7-248.3-445.3-496.7-667.9-745.1c-113.2-126.2-226.3-252.6-339.6-378.7c-2.3-9.7-5-19.4-9.9-28.1
			c-7.5-14.3-19-26.6-32.7-35.1C1428.8,1785,1391,1783.8,1361.9,1800.2z M2632.9,2161.4c-18.4,1.7-36.1,9.3-50.4,20.9
			c-13.3,11-23.6,25.8-29,42.2c-6.5,19.1-6.6,40.3-0.2,59.5c6.3,19.3,19.1,36.4,36,47.7c1.6,7.1,2.5,14.3,4,21.4
			c32.3,180.4,64.6,360.7,96.9,541.1c0.7,3.3,0.8,7,3,9.9c90.8,157.1,181.4,314.3,272.2,471.4c9.7,17.1,19.9,33.9,29.3,51.1
			c11-7.9,22.1-15.7,33-23.8c-18.2-31.1-36.1-62.5-54.2-93.6c-81-140.2-161.9-280.4-242.9-420.6c-2.1-3.5-1.8-7.8-2.8-11.6
			c-31.6-176.5-63.4-353-94.8-529.6c21.4,2.6,43.7-3.3,61.6-15.4c16.1-10.7,28.5-26.7,35.2-44.9c8-21.5,7.7-46-0.7-67.3
			c-6.6-16.3-17.6-30.9-31.9-41.1C2678.9,2165.3,2655.5,2159.1,2632.9,2161.4z M1621,2222.6c-18.4,6.9-34.6,19.7-45.2,36.3
			c-12.6,19.1-17.6,42.9-14.2,65.6c4.3,27.7,21.6,53.3,46.1,67c18.7,10.8,41.2,14.6,62.5,10.9c21.9-3.7,42.3-15.6,56.3-32.8
			c6.3-7.5,10.9-16.3,14.9-25.3c1.7,1.7,3.5,3.4,5.2,5.2c6,7.3,13.4,13.2,19.5,20.4c6.1,6.2,12.5,12.3,18.3,18.9
			c8.5,8.1,16.3,17,24.7,25.2c3.5,3.2,6.2,7.1,9.7,10.3c7.7,7.3,14.6,15.4,22.3,22.8c4.4,4,7.9,8.8,12.3,12.8
			c5.8,5.5,11,11.6,16.8,17.2c7.9,7.7,15.1,16.1,23.2,23.7c5.6,6.4,11.9,12.2,17.8,18.4c5.9,7.1,13.1,12.9,19,19.9
			c5.7,6,11.9,11.4,17.2,17.8c6.3,6.3,12.7,12.6,18.8,19.3c8.8,8.5,16.8,17.8,25.7,26.2c6.6,7.7,14.5,14.2,21,22
			c5.8,5.9,11.8,11.5,17.3,17.8c9.6,9.1,18.2,19.1,27.7,28.2c5.4,6.2,11.4,11.8,17.2,17.7c6.2,7.5,13.8,13.7,20.1,21.1
			c5.6,5.7,11.5,11.1,16.7,17.2c8.4,8,16,16.6,24.3,24.7c4.2,3.8,7.6,8.4,11.7,12.3c8.6,8.4,16.6,17.4,25.3,25.7
			c5.4,6.5,11.8,12.1,17.6,18.2c6,7,13.2,12.9,19.1,20c5.9,6.1,12.2,11.9,17.8,18.3c8.4,7.9,15.9,16.7,24.2,24.7
			c6.6,6.8,13,13.7,19.8,20.2c6.2,7.4,13.7,13.6,20,20.9c5.7,6,12,11.5,17.3,17.9c6.4,6.3,12.7,12.7,18.8,19.3
			c8.9,8.5,16.8,17.8,25.7,26.2c5.6,6.4,11.9,12.2,17.8,18.3c5.9,7.1,13.1,12.9,19,19.9c5.9,6.2,12.2,11.8,17.7,18.4
			c8.3,8,16,16.6,24.2,24.7c2.4,2.5,3.6,5.8,5.4,8.7c98.6,170.9,197.4,341.6,295.8,512.5c12.2-5.6,24.4-11.4,36.4-17.4
			c-99.9-173.3-200-346.5-300-519.7c-5.6-11.4-16.4-18.8-24.5-28.3c-5.9-6.4-12.5-12.1-18.1-18.8c-9.5-9.1-18.2-19-27.7-28.2
			c-5.3-6.3-11.5-11.9-17.2-17.8c-6.3-7.4-13.9-13.5-20-21c-6.6-6.4-13-13-19.3-19.7c-8.9-8.5-16.9-17.8-25.8-26.3
			c-5.4-6.2-11.5-11.9-17.2-17.7c-6.4-7.6-14.1-14-20.5-21.6c-8.7-8.3-16.6-17.4-25.2-25.7c-6.4-6.7-12.7-13.3-19.3-19.7
			c-5.5-6.5-11.9-12.2-17.7-18.3c-5.9-7-13.1-12.8-19-19.9c-5.9-6.1-12.2-11.9-17.8-18.3c-8.4-7.9-15.9-16.7-24.2-24.7
			c-4.7-4.4-8.6-9.4-13.3-13.8c-6.2-5.8-11.5-12.4-17.7-18.2c-4.9-4.5-9-9.7-13.8-14.2c-8.3-8.1-15.8-16.8-24.2-24.7
			c-6.8-7.9-14.8-14.6-21.5-22.6c-7-6.7-13.5-13.8-20.2-20.7c-8.1-7.9-15.5-16.5-23.8-24.3c-5.4-6.3-11.5-11.9-17.3-17.8
			c-6.2-7.4-13.8-13.6-20-21c-5.7-5.9-11.8-11.4-17.1-17.7c-8.2-7.8-15.7-16.3-23.8-24.3c-4.5-4.1-8.2-9-12.7-13.2
			c-8.5-8.3-16.3-17.1-24.8-25.3c-5.2-6.1-11.1-11.5-16.7-17.3c-6.3-7.4-13.9-13.6-20.1-21.1c-6.8-6.6-13.3-13.4-19.8-20.2
			c-8.5-8.2-16.2-17.2-24.8-25.3c-5.6-6.4-11.8-12.2-17.7-18.2c-6-7.3-13.4-13.3-19.5-20.4c-5.9-6.2-12.3-11.9-17.8-18.4
			c-8.2-7.9-15.8-16.2-23.7-24.3c-2.4-10-5.9-19.9-11.2-28.7c-10.2-17.2-26-31.1-44.5-38.6C1668.3,2214.6,1643.1,2214.1,1621,2222.6
			z M1867,2603.2c-19.6,1.9-38.4,10.6-53,23.8c-15.7,14.1-25.9,33.9-29.4,54.6c-4.9,30.4,6.3,63,29.3,83.6
			c17.5,16.1,41.4,25.3,65.2,24.3c18.5,0.2,36.8-6.2,51.9-16.7c13.8-9.3,24.4-22.8,31.5-37.8c137.5,116.1,275,232.1,412.6,348.1
			c2.7,2.4,6.1,4.3,7.6,7.8c58.3,101,116.6,202.1,175,303.1c39.9,69.4,80.1,138.5,119.9,208c12.5-5.1,24.8-10.9,37.3-16.2
			c-99.5-172.1-198.7-344.2-298.2-516.3c-2.2-3.7-3.9-7.9-7.7-10.3c-119.7-101-239.4-202-359.1-303c-26.3-22-52.4-44.5-78.9-66.3
			c-1.2-2.8-1-5.9-1.5-8.7c-4.3-26.6-20.5-51.1-43.7-64.9C1908.3,2605.6,1887.3,2600.9,1867,2603.2z"/>
	</g>
	<path class="st1" d="M1982.1,381.1c4.2-8.9,15.6-13.3,24.8-9.7c7.9,2.5,13.2,10.5,13.2,18.6c0,181.4,0,362.8,0,544.2
		c-14.1-3-27.8-8.4-40-16.2c0-173.7,0-347.3,0-521C1980,391.6,1979.5,386,1982.1,381.1z"/>
	<path class="st1" d="M1679.2,402.2c8.4-3.2,18.9,0.3,23.6,8c3.1,4.7,3.3,10.5,4.6,15.8c24.8,124.3,49.4,248.7,74.2,373
		c-13.5,0-27,0.6-40.5,1.9c-24.5-122.7-48.8-245.3-73.3-368c-0.9-4.6-2.3-9.2-1.8-14C1666.6,411.4,1672.1,404.6,1679.2,402.2z"/>
	<path class="st1" d="M2296.8,410.8c4.6-8.4,16-12.1,24.8-8.3c8.8,3.3,14,13.2,12.2,22.3c-29.6,148.6-59,297.3-88.8,445.9
		c-15.4,8.6-30.3,18-46,26c31.4-157.2,62.6-314.4,93.9-471.6C2293.9,420.3,2294.2,415.1,2296.8,410.8z"/>
	<path class="st1" d="M1368.2,500.2c3.9-5.1,10.4-7.8,16.7-7.5c6.9,0.4,13.7,4.4,16.8,10.7c1.7,3.6,3.1,7.4,4.7,11.1
		c46,111.1,92.1,222.1,137.9,333.2c-12.6,4.5-25,9.2-37.4,14.1c-14.4-34-28.3-68.3-42.6-102.4c-32.8-79.4-65.8-158.7-98.6-238.1
		C1362.7,514.5,1363.5,506,1368.2,500.2z"/>
	<path class="st1" d="M2597.7,504.6c3.6-9.3,15.1-14.3,24.4-11c8.3,2.4,14.3,10.8,13.9,19.4c0.1,4.2-1.8,8-3.3,11.8
		c-64.5,155.6-128.9,311.1-193.3,466.7c-3.4,8.8-7.7,17.4-10.6,26.4c-4.6-25.1-8.9-50.2-12.7-75.3
		C2476.8,796.7,2537.1,650.6,2597.7,504.6z"/>
	<path class="st1" d="M1094,645.1c6.7-4.8,16.3-4.8,23.1-0.2c4.1,2.6,6.3,7.1,9,10.9c21.8,32.8,43.7,65.6,65.7,98.3
		c22,33,43.9,66,66.1,98.9c22.5,33.7,44.9,67.5,67.5,101.2c-11.3,7.1-22.3,14.8-33.2,22.4c-23.2-34.1-45.9-68.6-68.8-102.9
		c-19.7-29.4-39.4-58.7-58.9-88.2c-23.5-35.4-47.3-70.6-70.8-106c-2.6-4.1-5.9-7.8-7.2-12.6C1083.9,659.1,1087.2,649.8,1094,645.1z"
		/>
	<path class="st1" d="M2877.9,650c5.7-8.8,18.8-11.1,27.5-5.4c9,5.7,11.9,18.9,5.9,27.8c-32.4,48.8-65.2,97.4-97.6,146.2
		c-43,64.2-85.8,128.5-128.9,192.7c-10.8-8.5-23.5-14.5-36.9-17.2c10.3-15,20.1-30.2,30.4-45.1c44.8-67.4,90-134.6,134.9-202
		C2834.8,714.8,2856.2,682.3,2877.9,650z"/>
	<path class="st1" d="M842.4,856.1c1.8-6.5,7.2-12,13.7-13.7c6.3-1.9,13.5-0.3,18.5,4c87.3,87.3,174.6,174.6,261.9,261.9
		c-9,9.8-18.4,19.3-27.1,29.4c-87.7-87.6-175.4-175.3-263-263C842.1,869.7,840.5,862.4,842.4,856.1z"/>
	<path class="st1" d="M3133.3,842.3c8.1-2.4,17.6,1.3,22,8.5c5.3,8,3.7,19.6-3.6,25.8c-90.1,89.9-180,180-270,270
		c-23.8,23.6-47.2,47.5-71.2,70.9c-6.9-11.9-13.7-23.8-20.6-35.7c110.8-110.8,221.6-221.6,332.4-332.4
		C3125.2,846,3128.9,843.3,3133.3,842.3z"/>
	<path class="st1" d="M647.3,1091.4c6.6-6.7,18-7.8,25.7-2.2c49.4,32.9,98.6,66,148,98.9c29.9,20.1,59.9,40.1,89.9,60.1
		c34.8,23.1,69.3,46.6,104.1,69.5c-1.5,17.7,0.7,35.8,6.4,52.7c-51.6-34.3-103-68.9-154.6-103.2c-72.3-48.4-144.6-96.7-217-145
		C639.8,1115.6,638.6,1099.6,647.3,1091.4z"/>
	<path class="st1" d="M3333.2,1086.3c6.7-2,14.4,0.2,19.4,5.1c8.8,8.2,7.5,24.2-2.6,30.8c-59.2,39.4-118.2,79.1-177.5,118.5
		c-32.6,22.1-65.5,43.8-98.3,65.7c-30.3,20.4-60.7,40.7-91.1,60.9c-34.8,23.2-69.4,46.6-104.2,69.7c-15.1,10.2-30.4,19.9-45.3,30.4
		c-8.4-11.5-19.5-21.1-32.4-27.2c11.1-6.5,21.6-14.2,32.3-21.4c66.3-44,132.3-88.5,198.6-132.5c32.6-22,65.5-43.8,98.2-65.7
		c29.8-19.9,59.6-39.9,89.4-59.8c33.6-22.3,67-44.9,100.6-67.2C3324.6,1090.9,3328.4,1087.6,3333.2,1086.3z"/>
	<path class="st1" d="M493.6,1377.8c2.3-7.9,10.1-13.8,18.4-13.8c5.4-0.4,10.2,2.3,15,4.2c158.8,65.9,317.8,131.5,476.6,197.5
		c-6.2,6.5-11.9,13.5-18.7,19.3c-4,3.9-8,7.7-12.3,11.3c-155.9-64.7-312-129.2-467.9-193.9C495.4,1398.7,490.3,1387.2,493.6,1377.8z
		"/>
	<path class="st1" d="M3478.7,1365.8c9.9-4.8,23.2,0,27.1,10.4c4.3,9.7-0.5,22.3-10.4,26.2c-179.6,74.4-359.2,148.8-538.8,223.2
		c-8.3,3.6-16.9,6.5-24.9,10.7c-6.8-11.8-13.5-23.5-20.3-35.3c33.9-14.4,68.1-28.2,102.1-42.4
		C3168.5,1494.3,3323.6,1430,3478.7,1365.8z"/>
	<path class="st1" d="M2558.8,1412.7c1.4-0.8,2.8-1.6,4.2-2.4c2,3.6,4.1,7.2,6.2,10.7c4.6,7.8,10.9,14.3,17.6,20.4
		c-12.8,12.9-25.6,25.7-38.4,38.4c-4.7-14.2-9.2-28.5-13.7-42.8C2542.7,1429,2551,1421,2558.8,1412.7z"/>
	<path class="st1" d="M404.2,1675c3.1-4.6,8-8.2,13.6-8.8c6-0.9,11.9,1.2,17.7,2.2c125.3,25,250.5,49.8,375.8,74.8
		c-2.2,13.7-1.6,27.8,1.7,41.2c-132-26.3-264.1-52.6-396.2-78.8c-5.4-1.2-10.4-4.5-13-9.4C399.9,1689.8,400.1,1681.3,404.2,1675z"/>
	<path class="st1" d="M3575.2,1666.2c9.8-2.1,20.3,4.2,22.9,13.8c3.6,10.7-3.7,23.5-14.9,25.5c-227.1,45.1-454.2,90.4-681.3,135.5
		c8.4-5,17-9.8,25.4-14.8c7.1-4.2,14.5-7.9,21-13.1c9.2-7.2,17-16.2,22.6-26.4c4.9-1.7,10-2.2,15-3.3
		C3182.3,1744.4,3378.7,1705.3,3575.2,1666.2z"/>
	<path class="st1" d="M2687.8,1854c2.7-1.5,5.1-3.6,8.1-4.4c5.9,10.2,12,20.5,21,28.3c-5.9,1-11.7,2.6-17.7,3.3
		C2695.4,1872.1,2691.6,1863,2687.8,1854z"/>
	<path class="st1" d="M371.4,1993.1c2.5-7.8,10.6-13.1,18.7-13.1c116.7,0,233.3,0,350,0c52.3,0.1,104.6-0.2,156.9,0.2
		c-23,13.4-46,26.6-69.1,39.9c-143.3-0.2-286.6,0-429.8-0.1c-5.5-0.1-11.3,0.8-16.4-1.8C372.3,2014.2,367.7,2002.4,371.4,1993.1z"/>
	<path class="st1" d="M3046.4,1980.1c185.8-0.2,371.7,0,557.5-0.1c5-0.1,10.4-0.4,15,2.2c8.7,3.9,13,15,10,23.9
		c-1.6,5.3-5.5,9.9-10.6,12.1c-5.1,2.6-10.9,1.7-16.3,1.8c-177.3,0-354.7,0-532,0C3062.1,2006.7,3054.3,1993.4,3046.4,1980.1z"/>
	<path class="st1" d="M3101.7,2239.6c13.8-8.3,24.9-20.8,32-35.2l0.3,0.7c148,29.5,296,58.9,444,88.4c3.8,0.7,7.7,1.3,11.1,3.4
		c8.6,4.7,12.3,16.6,8.1,25.4c-3.5,8.4-13.1,13.2-22,11.5C3417.4,2302.4,3259.6,2271,3101.7,2239.6z"/>
	<path class="st1" d="M416.8,2294.5c137.9-27.4,275.9-54.9,413.8-82.3c7,12.2,14.1,24.5,21.2,36.7
		c-139.3,27.6-278.6,55.4-417.9,83.1c-5.3,0.9-10.6,2.7-16.1,1.9c-7.8-1-14.5-7.3-16.2-14.9C398.6,2308.4,406,2296.4,416.8,2294.5z"
		/>
	<path class="st1" d="M1174,2320.5c39.3-16.4,78.7-32.8,118.1-48.9c1.8,2.1,3.7,4.2,5.5,6.4c-10-0.3-20,1.6-29.4,5.1
		c-10.1,3.8-19.1,9.7-28.4,15c-31,17.9-62.1,35.8-93.1,53.7c-7.6,4.6-15.7,8.5-22.6,14.2c-9.6,7.4-17.1,17.2-22.8,27.9
		c-30.2,12.8-60.6,25.1-90.8,37.7c-160.7,66.6-321.4,133.1-482.1,199.7c-5.3,2-10.5,5.1-16.3,4.7c-8.3-0.1-16.1-5.9-18.4-13.9
		c-3.3-9.4,1.7-20.8,11-24.5c107.9-44.8,215.9-89.4,323.8-134.2c45.8-18.8,91.5-38.1,137.4-56.7c20.4,7.6,43.7,7.1,63.8-1.4
		c8.1-3.6,15.6-8.4,23.3-12.7c31.2-18.1,62.4-36,93.7-54.1C1156,2333.1,1165.9,2328,1174,2320.5z"/>
	<path class="st1" d="M2935.8,2366c98.4,40.5,196.7,81.4,295.1,122.1c88.2,36.6,176.4,73,264.6,109.6c9.9,3.9,14.7,16.5,10.4,26.2
		c-3.8,10.1-16.5,15-26.3,10.7c-167.6-69.4-335.2-138.8-502.7-208.2c-3.1-1.1-5.9-3.1-9.3-3.1
		C2956.8,2404.2,2946.3,2385.1,2935.8,2366z"/>
	<path class="st1" d="M1050.4,2610.4c31.3-21.2,62.8-41.9,94.2-63c6.7,11.6,13.4,23.3,20.2,34.9c-65.7,43.8-131.3,87.8-197,131.5
		c-32.3,21.8-64.8,43.3-97.1,64.9c-30.2,20.2-60.3,40.4-90.5,60.5c-33.6,22.3-67,45-100.7,67.3c-4,2.5-7.8,5.8-12.5,7.2
		c-7.9,2.5-17.2-0.8-21.9-7.6c-4.9-6.7-4.9-16.3-0.2-23.1c2.2-3.5,5.8-5.6,9.2-7.8c33-22,66-44,99-66.1
		c32.6-21.8,65.3-43.3,97.7-65.3C917.4,2699.4,983.8,2654.7,1050.4,2610.4z"/>
	<path class="st1" d="M1552.1,2634.2c4.6-6.8,9-13.7,13.7-20.4c3.2,4.8,7.2,9.3,10,14.4C1567.6,2629.1,1559.6,2631.1,1552.1,2634.2z
		"/>
	<path class="st1" d="M2982.2,2632.1c24.4,16.5,49.1,32.6,73.5,49.2c66.9,44.4,133.4,89.2,200.3,133.7
		c31.3,21.1,62.7,41.9,94.1,62.9c8.8,5.7,11.2,18.9,5.3,27.5c-4.6,7.1-14,10.8-22.1,8.3c-4.6-1.2-8.3-4.4-12.1-6.8
		c-51.4-34.2-102.6-68.7-154-102.9c-32.1-21.7-64.4-43-96.6-64.6c-31.9-21.4-63.8-42.8-95.9-64.1
		C2977.1,2661,2979.7,2646.5,2982.2,2632.1z"/>
	<path class="st1" d="M1172.3,2799.4c25.8-25.6,51.3-51.6,77.2-77c9.6,10,22.2,16.9,35.4,21c-135.3,135.3-270.5,270.5-405.8,405.8
		c-2.9,2.9-5.5,6.2-9.5,7.6c-8.2,3.8-18.7,1.1-24-6.2c-5.7-7.2-5.3-18.3,0.7-25.1C955,3016.7,1063.7,2908,1172.3,2799.4z"/>
	<path class="st1" d="M1341,2950c21.8-32.1,43.1-64.6,64.8-96.8c7.4,13,14.7,26.1,22.1,39.1c-14.4,21.7-28.8,43.4-43.5,65
		c-44.5,66.9-89.3,133.5-133.7,200.3c-22.1,32.6-43.8,65.5-65.7,98.2c-20.9,31.1-41.8,62.3-62.5,93.5c-5.1,8.3-16.7,11.4-25.4,7.3
		c-10.5-4.5-14.9-18.8-8.8-28.4c18.7-28.5,38-56.7,56.8-85.1c21.2-31.8,42.4-63.6,63.7-95.4C1252.8,3081.9,1297.1,3016.1,1341,2950z
		"/>
	<path class="st1" d="M1798.7,2960.3c7.6,12.7,15.6,25.2,23.2,37.9c-38.9,195-77.6,390-116.4,585c-2,11.2-14.7,18.5-25.4,14.9
		c-9.6-2.6-15.9-13.1-13.9-22.9c38.4-192.7,76.7-385.4,115-578.1C1789.9,2986.4,1795.7,2973.6,1798.7,2960.3z"/>
	<path class="st1" d="M1533.8,3072.5c9.6,9.8,21.9,16.9,35,20.8c-55.3,133.9-110.8,267.6-166.2,401.4c-3.2,8.9-13.5,14.4-22.7,12.2
		c-8.9-1.6-15.9-9.9-16-18.9c-0.4-4.6,1.6-8.8,3.3-12.9c48.1-116.1,96.2-232.3,144.3-348.5
		C1518.9,3108.6,1526.8,3090.7,1533.8,3072.5z"/>
	<path class="st1" d="M3136.7,3108.7c5.4,4.8,10.3,10.2,15.5,15.2c5.6,5.2,7.6,13.8,5.2,21
		C3150.5,3132.8,3143.4,3120.8,3136.7,3108.7z"/>
	<path class="st1" d="M1980,3159.8c13.3,4.9,26.6,9.7,39.9,14.6c0.2,144.9,0,289.8,0.1,434.7c0.4,8.4-4.9,17-13.1,19.6
		c-9.1,3.6-20.6-0.8-24.8-9.7c-2.5-4.6-2.2-9.9-2.1-14.9C1980,3455.9,1980,3307.8,1980,3159.8z"/>
	<path class="st1" d="M2245.3,3335.9c20.9,36.3,41.9,72.4,62.7,108.8c2.2,13.8,5.5,27.5,8,41.3c5.5,27.6,11,55.3,16.6,82.9
		c0.9,4.3,2,8.8,1.3,13.2c-0.9,7.1-6.2,13.4-13,15.7c-8.2,3.1-18.4-0.1-23.2-7.4c-2.4-3.4-3.3-7.5-4-11.5
		C2277.5,3497.9,2261.4,3416.9,2245.3,3335.9z"/>
</g>
<circle class="st2" cx="2000" cy="2000" r="1779.1"/>
</svg>
