<?xml version="1.0" encoding="utf-8"?>
<!-- Generator: Adobe Illustrator 23.0.1, SVG Export Plug-In . SVG Version: 6.00 Build 0)  -->
<svg version="1.1" id="Layer_1" xmlns="http://www.w3.org/2000/svg" xmlns:xlink="http://www.w3.org/1999/xlink" x="0px" y="0px"
	 viewBox="0 0 4000 4000" style="enable-background:new 0 0 4000 4000;" xml:space="preserve">
<style type="text/css">
	.st0{fill:#F3C26B;}
	.st1{display:none;fill:#F3C26B;}
	.st2{fill:none;stroke:#F3C26B;stroke-width:100;stroke-linecap:square;stroke-miterlimit:10;}
</style>
<g>
	<g>
		<path class="st0" d="M1949.56,221.68c6.13-0.43,12.3-0.08,18.46-0.16c15.31-1.05,30.69-0.29,46.03-0.52
			c8.98-0.33,17.91,0.84,26.89,0.5c148.9,3.29,297.6,25.24,441.07,65.57c163.27,45.77,319.82,115.29,463.34,205.58
			c64.55,40.53,126.46,85.26,185.3,133.71c43.66,36.13,85.88,74.02,125.74,114.3c51.07,50.43,98.61,104.4,143.06,160.77
			c98.21,124.97,179.74,263.08,241.26,409.64c82.94,196.98,129.46,409.23,137.01,622.76c0.7,5.31-0.17,10.68,0.58,16.01
			c0.45,6.01,0.08,12.05,0.18,18.09c1.04,14.97,0.29,30.01,0.52,45.02c0.32,9.39-0.86,18.73-0.5,28.13
			c-2.33,101.53-13.15,203.04-32.72,302.77c-32.95,168.56-90.67,332.28-170.8,484.18c-72.27,137.31-162.7,265.01-267.99,378.98
			c-13.33,14.28-26.64,28.6-40.59,42.32c-94.56,96.25-200.41,181.42-314.32,253.78c-138.79,88.14-289.88,156.88-447.6,203.35
			c-142.45,42.06-290.29,65.99-438.66,71.3c-6.26,0.5-12.56-0.05-18.8,0.75c-11.7-0.4-23.35,0.72-35.04,0.49
			c-9.33-0.01-18.66,0-27.98,0c-8.02,0.25-15.98-0.89-24-0.5c-183.83-3.9-367.28-36.42-541.13-96.6
			c-246.8-84.94-474.05-225.73-660.72-408.03c-11.51-11.5-23.01-23-34.51-34.5c-107.57-110.82-200.86-235.62-276.36-370.38
			c-95.76-170.5-162.87-357.06-197.65-549.5c-14.43-79.41-23.34-159.84-26.89-240.43c-0.23-8.33-0.89-16.64-0.74-24.98
			c-1.18-10,0.16-20.11-1-30.11c0.23-18.98-0.54-38,0.52-56.95c0.05-5.64-0.2-11.28,0.1-16.9c0.86-5.74-0.07-11.56,0.7-17.29
			c6.82-189.56,44.29-378.13,110.8-555.82c86.62-232.14,222.8-445.64,396.46-622.31c10.19-10.2,20.38-20.4,30.59-30.59
			c119.54-116.2,255.47-215.66,402.57-294.21c154.3-82.52,320.96-141.94,492.7-175.53C1752.33,235.27,1850.92,224.53,1949.56,221.68
			z M1968.98,261.52c-6.64,0.11-13.3-0.37-19.9,0.35c-4.9,0.43-9.82-0.27-14.69,0.46c-217.09,7.76-432.74,56.91-631.7,144.24
			c-147.37,64.57-285.63,149.87-409.65,252.38c-38.03,31.52-74.9,64.46-110.01,99.17c-10.84,9.77-20.73,20.55-30.89,31.01
			c-165.65,170.29-295.95,374.98-379.7,597.36c-65.49,173.33-102.61,357.35-109.93,542.45c-0.1,5.7-0.83,11.37-0.48,17.1
			c-1.18,10.26,0.12,20.62-1.03,30.89c0.22,18.34-0.52,36.72,0.53,55.03c-0.19,15.32,0.71,30.61,1.25,45.91
			c3.07,69.51,10.24,138.92,21.63,207.59c31.61,192.03,96.12,378.58,189.76,549.16c74.35,135.72,167.04,261.4,274.46,372.75
			c7.68,7.34,14.53,15.47,22.25,22.79c6.63,7.03,14.07,13.21,20.76,20.2c170.58,165.09,375.27,294.97,597.63,378.24
			c174.25,65.5,359.24,102.35,545.2,109.08c6.47,0.68,13-0.05,19.48,0.82c12.69-0.37,25.32,0.8,38.01,0.5
			c12.67-0.21,25.38,0.49,38.03-0.53c6.64-0.11,13.3,0.33,19.94-0.26c129.25-3.59,258.27-21.61,383.58-53.77
			c3.45-0.7,6.8-2.51,10.4-2.02c0.08-0.6,0.24-1.8,0.31-2.4c0.28,0.34,0.85,1.02,1.13,1.37c13.45-3.44,26.74-7.56,40.2-10.92
			c-9.44-15.96-18.59-32.09-27.88-48.13c-80.91-140.04-161.68-280.15-242.64-420.16c-95.58-34.81-191.09-69.8-286.69-104.52
			c-7.63-13.68-15.71-27.12-23.58-40.65c-41.22-69.97-83.88-139.08-127.96-207.28c-5.8,2.65-11.12,6.23-16.76,9.2
			c-10.25,5.91-20.68,11.53-30.85,17.58c7.58,14.12,15.74,27.92,23.53,41.94c5.65,9.14,8.37,20.28,6.64,30.96
			c-2.26,14.22-11.35,27.19-24.29,33.65c-37.31,21.15-74.68,42.2-112,63.34c-6.13,3.34-12.07,7.4-19.07,8.7
			c-18.9,4.97-40.12-4.65-49.59-21.59c-41.51-73.51-83.07-146.99-124.61-220.48c-3.52-6.6-8-12.87-9.6-20.3
			c-3.36-13.29-0.13-27.99,8.34-38.75c4-4.6,8.49-8.88,13.91-11.76c35.37-19.96,70.71-39.97,106.07-59.94
			c9.24-4.88,17.91-11.49,28.46-13.29c8.42-1.11,17.26-0.71,25.14,2.77c9.44,3.77,17.43,10.99,22.42,19.83
			c6.2,11.14,12.53,22.21,18.8,33.32c4.14,6.92,7.59,14.31,12.21,20.93c12.65-7.19,25.31-14.37,38.03-21.45
			c-56.15-82.43-114.82-163.14-175.58-242.22c-24.65,14.46-49.5,28.58-74.2,42.95c5.85,11.02,12.44,21.64,18.54,32.54
			c4.39,7.87,9.92,15.41,11.65,24.45c4.78,19.8-6.26,41.52-24.47,50.26c-35.52,20.58-71.1,41.05-106.64,61.59
			c-7.99,4.41-15.7,10.04-24.93,11.5c-18.19,3.9-37.99-5.45-47.3-21.4c-43.46-75.17-86.8-150.4-130.27-225.56
			c-5.84-9.32-9.18-20.67-7.3-31.67c1.47-10.63,6.86-20.68,14.96-27.72c5.04-4.53,11.27-7.35,17.01-10.85
			c36.86-21.26,73.69-42.58,110.57-63.81c11.56-6.93,26.35-7.88,38.85-3c10.43,3.98,19.04,12.14,24.24,21.97
			c9.86,17.26,19.91,34.43,29.8,51.69c9.82-4.8,19.01-10.87,28.6-16.13c8.77-5.3,17.91-9.99,26.49-15.58
			c-0.87-0.94-1.72-1.87-2.53-2.79c-55.02-66.93-111.72-132.51-170.39-196.26c-8.88-9.39-17.34-19.24-26.57-28.24
			c-31.35,18.19-62.76,36.29-94.17,54.37c6.14,11.02,12.61,21.85,18.83,32.82c4.45,7.95,10.02,15.6,11.64,24.78
			c3.22,14.97-2.2,31.47-13.54,41.76c-3.68,3.94-8.53,6.39-13.12,9.1c-35.49,20.44-70.93,40.96-106.42,61.4
			c-9,5.35-18.49,11.29-29.35,11.14c-13.54,0.89-27.2-5.09-36.12-15.23c-4.06-4.62-6.84-10.14-9.91-15.41
			c-42.11-72.91-84.21-145.84-126.31-218.76c-4.01-6.99-6.93-14.89-6.65-23.05c-0.59-16.08,8.65-31.78,22.51-39.74
			c37.14-21.47,74.3-42.9,111.44-64.36c6.47-3.56,12.6-8,19.91-9.73c18.65-5.36,39.91,3.41,49.95,19.89
			c10.68,18.52,21.45,36.99,32.01,55.57c20.61-11.68,41.17-23.47,61.54-35.54c-2.11-2.44-4.55-4.52-7-6.57
			c-5.75-5.62-11.32-11.43-17.1-17.01c-5.61-4.64-10.16-10.41-15.85-14.95c-10.01-10.03-20.51-19.53-30.78-29.29
			c-55.38-51.73-112.49-101.73-171.77-149c-16.55-13.25-25.53-35.37-22.75-56.39c2.31-19.3,13.83-37.31,30.66-47.1
			c15.23-8.84,30.52-17.59,45.75-26.43c14.99-8.31,29.09-18.11,42.83-28.34c15.59-11.45,30.34-24.05,44.34-37.39
			c28.86-28.15,54.33-61.13,67.71-99.57c6.27-18.34,9.63-37.74,9.17-57.12c-0.54-30.64-10.68-60.51-26.01-86.81
			c-7.28-12.42-10.21-26.9-10.58-41.16c0.49-22.64,7.48-44.62,17.06-64.97c16.51-34.58,39.61-65.56,64.55-94.48
			c26.4-30.56,55.43-58.7,85.78-85.31c29.09-25.44,59.51-49.37,91.07-71.67c34.48-24.43,70.38-46.91,107.98-66.23
			c36.24-18.87,73.72-35.38,111.84-50.11c39.83-15.27,80.51-28.41,121.98-38.5c41.81-10.04,84.61-17.24,127.7-17.2
			c22.58,0.64,45.53,2.83,66.92,10.63c15.94,5.71,31.09,14.82,41.87,28.07c6.17,7.19,10.05,15.95,15.49,23.66
			c15.29,22.95,35.66,42.74,60,55.92c18.73,10.19,39.54,16.34,60.68,18.86c39.84,4.59,80.16-2.26,118.17-14.23
			c27.52-8.77,54.18-20.16,79.72-33.63c13.18-7.55,26.31-15.17,39.46-22.76c10.91-6.05,21.35-13.68,33.86-16.03
			c27.21-6.38,57.27,8.28,69.71,33.14c6.25,11.31,6.85,24.45,8.98,36.92c15.87,101,38.1,200.9,63.61,299.87
			c6.17-2.83,11.82-6.67,17.77-9.93c12.26-7.09,24.53-14.17,36.8-21.24c2.32-1.42,4.86-2.56,6.84-4.48
			c-10.5-17.61-20.54-35.5-30.88-53.22c-7.02-11.49-8.5-26.22-3.7-38.82c3.69-10.29,11.35-19.06,20.95-24.26
			c35.64-20.59,71.29-41.17,106.94-61.73c8.31-4.6,16.24-10.51,25.78-12.28c18.32-4.05,38.55,5.06,47.88,21.3
			c44.23,76.54,88.41,153.1,132.6,229.66c4.56,8.81,6.83,19.17,4.74,28.99c-2.01,12.55-9.79,23.92-20.52,30.65
			c-40.79,23.73-81.75,47.19-122.57,70.87c-10.8,5.93-24.05,7.34-35.73,3.29c-9.92-3.26-18.69-10.05-24.2-18.93
			c-8.58-14.46-16.8-29.13-25.32-43.62c-0.71-2.14-2.67-0.83-3.83,0.02c-30.49,17.7-61.07,35.27-91.59,52.93
			c29.46,96.38,61.9,191.87,97.64,286.12c18.39-10.3,36.65-20.85,54.76-31.62c-10.69-18.8-21.76-37.38-32.3-56.25
			c-11.05-19.85-3.32-47.08,15.98-58.78c40.58-23.51,81.22-46.93,121.84-70.37c10.64-6.33,23.97-7.97,35.78-4.12
			c9.77,2.93,18.3,9.46,24.15,17.76c4.1,6.63,7.87,13.47,11.8,20.21c40.73,70.58,81.51,141.12,122.2,211.71
			c9.48,16.57,6.46,38.88-6.83,52.53c-5.89,6.6-14.12,10.18-21.54,14.68c-36.37,20.99-72.72,42-109.09,62.98
			c-16.79,10.14-40.19,7.27-53.85-6.83c-6.65-5.87-10.07-14.22-14.62-21.62c-6.2-10.55-12.17-21.24-18.41-31.76
			c-24.97,13.8-49.39,28.62-74.3,42.54c5.23,13.91,11.32,27.5,17,41.24c33.04,78.23,68.05,155.63,104.76,232.18
			c12.49-7.58,25.05-15.08,37.79-22.24c-7.68-14-16.17-27.57-24.17-41.39c-4.86-8.81-11.34-17.06-13.1-27.2
			c-3.93-18.13,5.07-37.83,20.89-47.29c40.73-24.04,81.48-48.05,122.22-72.07c19.21-10.56,45.43-4.12,57.74,13.94
			c4.96,7.73,9.43,15.78,14.15,23.67c40.96,69.46,81.9,138.92,122.86,208.37c4.27,8.67,6.45,18.73,4.49,28.33
			c-1.42,9.32-6.21,17.86-12.67,24.64c-6.52,6.3-14.85,10.08-22.44,14.86c-35.85,21.07-71.64,42.27-107.5,63.33
			c-16.74,9.61-39.55,6.48-52.99-7.37c-6.89-6.21-10.45-14.96-15.39-22.61c-5.81-10.09-11.96-19.99-17.58-30.18
			c-7.96,3.94-15.33,8.96-23.09,13.27c-8.02,4.95-16.36,9.38-24.25,14.51c43.58,85.19,89.29,169.3,137.07,252.23
			c0.68,1.41,2.02,2.79,1.59,4.56c-17.6,99.69-34.91,199.43-52.61,299.11c51.9,89.66,103.59,179.45,155.46,269.13
			c39.11,68.01,78.58,135.81,117.55,203.89c3.43-3.17,6.65-6.55,10.28-9.51c6.31-6.8,14.11-12.53,19.64-19.84l-0.12-0.76l0.71,0.18
			c5.86-3.76,10.2-9.51,15.32-14.21c6.19-5.79,11.61-12.29,17.67-18.21c170.72-175.51,303.89-387.56,387.27-617.83
			c64.5-177.33,99.31-365.44,103.38-553.99c-0.4-7.71,0.74-15.36,0.5-23.05c-0.01-13.02,0.01-26.04-0.01-39.05
			c-1.13-8.89,0.03-17.87-0.76-26.77c-2.86-101.46-14.5-202.83-35-302.31c-35.12-170.95-96.4-336.51-181.05-489.11
			c-74.08-133.81-165.96-257.79-272.32-367.64c-6.66-6.34-12.49-13.44-19.19-19.73c-7.47-7.89-15.75-14.91-23.27-22.74
			c-83.64-80.68-175.36-153.08-273.36-215.6c-147.75-94.38-309.92-166.15-479.19-211.86c-135.19-36.61-274.96-56.55-414.9-59.7
			c-8.69,0.37-17.31-0.81-25.99-0.5C1998.97,261.22,1983.94,260.48,1968.98,261.52z M2162.84,1347.36
			c-23.62,2.23-46.16,13.98-61.6,31.98c-16.91,19.52-25.11,46.33-21.96,71.95c2.49,23.22,14.36,45.21,32.09,60.36
			c1.57,2.02,1.84,4.75,2.81,7.11c156.32,477.94,312.86,955.82,469.24,1433.74c1.51,4.13,2.46,8.5,4.55,12.41
			c61.54,106.54,123.02,213.11,184.56,319.64c39.92,69.34,80.14,138.52,119.92,207.94c11.69-6.63,23.08-13.81,34.37-21.1
			c-100.71-174.33-201.33-348.72-302.02-523.07c-2.2-3.92-3.05-8.39-4.62-12.54c-124.19-379.44-248.37-758.88-372.61-1138.31
			c-28.67-88.03-57.78-175.93-86.26-264.01c30.39,3.58,62.29-8.61,81.97-32.13c14.93-17.33,23.25-40.39,22.24-63.28
			c-0.02-25.09-11.69-49.65-29.98-66.6C2216.16,1353.58,2189.05,1344.64,2162.84,1347.36z M2383.93,1781.67
			c-19.25,7.71-35.68,22.11-45.91,40.13c-9.55,16.61-13.71,36.27-11.9,55.29c1.89,21.49,11.61,42.23,26.95,57.42
			c1.39,1.54,3.5,2.63,4.19,4.73c93.82,330.34,187.66,660.68,281.5,991.02c0.86,3.15,2.87,5.82,4.43,8.69
			c100.31,173.84,200.76,347.61,301.02,521.48c11.26-7.36,22.45-14.83,33.59-22.38c-97.56-168.74-194.92-337.59-292.42-506.37
			c-3.48-6.88-8.72-12.99-10.38-20.65c-64.58-227.43-129.22-454.84-193.78-682.27c-25.46-89.22-50.57-178.54-76.18-267.7
			c6.63,0.21,13.25,1.55,19.89,0.62c26.73-1.32,52.29-15.13,68.54-36.29c13.03-16.85,19.92-38.37,19.21-59.62
			c-0.3-18.75-6.69-37.31-17.7-52.47c-13.52-18.87-34.43-32.18-57.18-36.66C2419.86,1773.26,2400.85,1774.64,2383.93,1781.67z
			 M1361.92,1800.2c-13.92,7.66-25.88,18.82-34.22,32.36c-11.27,18.18-16.24,40.35-13.36,61.58c3.84,32.87,26.73,62.62,57.53,74.73
			c10.81,4.26,22.43,6.95,34.12,6.64c31.87,1.08,63.53-16.28,80.25-43.37c2.82-3.98,4.34-8.71,7.13-12.7
			c326.38,363.96,652.65,728.05,979,1092.04c5.59,6.84,12.69,12.58,16.64,20.65c99.7,172.75,199.45,345.48,299.18,518.22
			c12.06-5.95,23.84-12.47,35.8-18.64c-19.5-33.11-38.47-66.56-57.78-99.78c-81.84-141.81-163.72-283.59-245.58-425.38
			c-3.37-6.39-9.02-11.09-13.54-16.6c-222.68-248.34-445.31-496.72-667.95-745.09c-113.23-126.22-226.3-252.59-339.61-378.72
			c-2.25-9.67-4.97-19.36-9.89-28.06c-7.51-14.35-18.97-26.58-32.71-35.12C1428.82,1784.98,1391,1783.8,1361.92,1800.2z
			 M2632.88,2161.39c-18.4,1.7-36.11,9.25-50.37,20.93c-13.32,11-23.57,25.76-28.96,42.19c-6.52,19.12-6.62,40.32-0.17,59.47
			c6.32,19.27,19.12,36.43,35.98,47.74c1.64,7.06,2.53,14.28,3.98,21.39c32.27,180.36,64.62,360.7,96.9,541.06
			c0.68,3.34,0.82,6.99,2.96,9.86c90.76,157.12,181.45,314.28,272.19,471.41c9.68,17.08,19.91,33.87,29.26,51.13
			c10.99-7.95,22.15-15.68,33.03-23.78c-18.21-31.13-36.08-62.46-54.17-93.65c-80.96-140.2-161.85-280.43-242.86-420.6
			c-2.06-3.53-1.83-7.79-2.77-11.63c-31.56-176.52-63.36-353-94.77-529.55c21.45,2.63,43.7-3.31,61.55-15.38
			c16.09-10.73,28.52-26.74,35.22-44.86c7.97-21.49,7.73-45.96-0.73-67.26c-6.57-16.3-17.55-30.91-31.92-41.1
			C2678.9,2165.28,2655.48,2159.13,2632.88,2161.39z M1620.99,2222.55c-18.39,6.92-34.56,19.74-45.2,36.28
			c-12.55,19.13-17.61,42.95-14.19,65.55c4.29,27.73,21.55,53.25,46.11,66.96c18.73,10.75,41.24,14.6,62.5,10.9
			c21.89-3.72,42.33-15.58,56.35-32.8c6.33-7.54,10.95-16.31,14.89-25.28c1.69,1.74,3.5,3.4,5.16,5.22
			c6.02,7.25,13.42,13.23,19.5,20.44c6.14,6.23,12.51,12.26,18.27,18.86c8.53,8.11,16.26,16.99,24.74,25.16
			c3.5,3.16,6.2,7.09,9.72,10.27c7.68,7.34,14.63,15.37,22.28,22.75c4.36,4,7.86,8.8,12.26,12.78c5.84,5.5,10.99,11.65,16.76,17.23
			c7.9,7.73,15.13,16.1,23.19,23.7c5.59,6.44,11.91,12.21,17.81,18.37c5.88,7.06,13.08,12.88,19.03,19.89
			c5.65,6,11.89,11.44,17.19,17.78c6.34,6.33,12.7,12.64,18.76,19.25c8.85,8.49,16.83,17.8,25.74,26.24
			c6.58,7.73,14.47,14.23,20.99,22.03c5.8,5.87,11.83,11.53,17.28,17.75c9.55,9.12,18.18,19.11,27.74,28.24
			c5.4,6.2,11.43,11.8,17.19,17.67c6.22,7.5,13.84,13.69,20.15,21.13c5.56,5.73,11.49,11.13,16.67,17.24
			c8.35,7.98,16.01,16.62,24.26,24.71c4.19,3.8,7.57,8.39,11.72,12.26c8.62,8.39,16.58,17.41,25.29,25.74
			c5.45,6.46,11.79,12.11,17.63,18.24c5.96,7.02,13.18,12.87,19.08,19.96c5.89,6.14,12.2,11.88,17.79,18.33
			c8.38,7.92,15.88,16.68,24.18,24.7c6.56,6.78,12.99,13.69,19.81,20.24c6.16,7.43,13.67,13.61,19.97,20.93
			c5.66,6.04,11.96,11.48,17.26,17.87c6.39,6.3,12.7,12.67,18.79,19.27c8.86,8.47,16.82,17.77,25.72,26.22
			c5.57,6.42,11.87,12.16,17.77,18.31c5.87,7.06,13.07,12.88,19.02,19.89c5.85,6.16,12.23,11.84,17.73,18.35
			c8.33,7.96,15.98,16.58,24.21,24.66c2.35,2.51,3.57,5.83,5.43,8.73c98.55,170.85,197.35,341.57,295.77,512.5
			c12.24-5.59,24.37-11.42,36.41-17.42c-99.92-173.28-200.02-346.47-300.01-519.72c-5.61-11.43-16.42-18.8-24.48-28.31
			c-5.94-6.37-12.51-12.13-18.12-18.79c-9.51-9.14-18.23-19.03-27.74-28.16c-5.33-6.34-11.51-11.88-17.23-17.84
			c-6.27-7.38-13.85-13.52-20.01-20.97c-6.57-6.45-12.98-13.03-19.26-19.73c-8.85-8.51-16.85-17.82-25.76-26.26
			c-5.41-6.24-11.47-11.85-17.24-17.72c-6.36-7.63-14.09-13.98-20.53-21.55c-8.71-8.28-16.56-17.37-25.19-25.72
			c-6.35-6.66-12.68-13.33-19.28-19.73c-5.49-6.51-11.87-12.17-17.72-18.33c-5.95-7.01-13.15-12.84-19.02-19.9
			c-5.9-6.15-12.2-11.89-17.78-18.32c-8.4-7.94-15.94-16.7-24.22-24.74c-4.67-4.4-8.63-9.44-13.32-13.78
			c-6.17-5.81-11.49-12.4-17.66-18.2c-4.85-4.5-8.98-9.69-13.78-14.23c-8.28-8.06-15.81-16.81-24.22-24.74
			c-6.77-7.91-14.82-14.62-21.52-22.57c-6.98-6.68-13.49-13.78-20.23-20.66c-8.14-7.89-15.51-16.5-23.75-24.28
			c-5.45-6.26-11.54-11.89-17.32-17.82c-6.2-7.44-13.75-13.6-20.01-20.96c-5.71-5.92-11.83-11.44-17.13-17.71
			c-8.21-7.84-15.73-16.31-23.81-24.26c-4.53-4.13-8.21-9.04-12.68-13.22c-8.46-8.25-16.28-17.11-24.82-25.27
			c-5.18-6.13-11.13-11.51-16.68-17.26c-6.28-7.41-13.89-13.57-20.07-21.05c-6.75-6.58-13.27-13.37-19.75-20.2
			c-8.51-8.19-16.18-17.17-24.77-25.28c-5.6-6.36-11.76-12.19-17.72-18.21c-5.99-7.27-13.37-13.25-19.48-20.41
			c-5.87-6.21-12.31-11.88-17.8-18.44c-8.17-7.85-15.77-16.23-23.72-24.28c-2.39-10.02-5.86-19.88-11.24-28.72
			c-10.17-17.21-26.02-31.05-44.53-38.65C1668.31,2214.58,1643.06,2214.06,1620.99,2222.55z M1866.99,2603.21
			c-19.64,1.87-38.38,10.6-52.99,23.77c-15.72,14.11-25.95,33.86-29.4,54.65c-4.91,30.41,6.31,62.96,29.25,83.59
			c17.46,16.1,41.37,25.26,65.15,24.29c18.49,0.19,36.77-6.22,51.87-16.73c13.78-9.34,24.42-22.81,31.47-37.81
			c137.52,116.06,275.05,232.1,412.58,348.14c2.66,2.44,6.11,4.29,7.61,7.77c58.33,101.03,116.64,202.07,175,303.09
			c39.92,69.35,80.15,138.53,119.92,207.97c12.53-5.12,24.81-10.85,37.26-16.17c-99.48-172.06-198.74-344.24-298.17-516.32
			c-2.18-3.72-3.85-7.95-7.66-10.31c-119.73-100.96-239.4-202-359.1-302.99c-26.33-22.04-52.36-44.5-78.87-66.3
			c-1.21-2.78-0.97-5.86-1.47-8.74c-4.27-26.59-20.52-51.07-43.69-64.88C1908.3,2605.63,1887.26,2600.87,1866.99,2603.21z"/>
	</g>
	<path class="st1" d="M1982.09,381.08c4.15-8.94,15.63-13.31,24.75-9.74c7.86,2.47,13.18,10.53,13.16,18.64
		c-0.01,181.39,0.01,362.78-0.01,544.16c-14.13-3-27.78-8.4-39.99-16.15c-0.01-173.66,0-347.32,0-520.99
		C1979.99,391.65,1979.46,385.98,1982.09,381.08z"/>
	<path class="st1" d="M1679.2,402.2c8.42-3.23,18.92,0.27,23.6,8.01c3.09,4.7,3.31,10.48,4.55,15.81
		c24.76,124.32,49.42,248.66,74.21,372.98c-13.51-0.04-27.02,0.64-40.48,1.87c-24.51-122.65-48.78-245.34-73.25-367.99
		c-0.88-4.6-2.3-9.21-1.79-13.95C1666.62,411.41,1672.06,404.58,1679.2,402.2z"/>
	<path class="st1" d="M2296.84,410.81c4.64-8.41,15.97-12.13,24.76-8.31c8.77,3.25,14,13.21,12.17,22.32
		c-29.64,148.62-59.04,297.29-88.77,445.89c-15.39,8.59-30.31,18.04-46.03,26.03c31.38-157.19,62.55-314.43,93.86-471.64
		C2293.91,420.28,2294.2,415.12,2296.84,410.81z"/>
	<path class="st1" d="M1368.24,500.17c3.86-5.09,10.39-7.76,16.71-7.52c6.91,0.35,13.72,4.41,16.76,10.73
		c1.73,3.62,3.08,7.42,4.7,11.11c45.96,111.07,92.08,222.09,137.95,333.21c-12.56,4.46-25.02,9.17-37.41,14.09
		c-14.45-34.02-28.31-68.29-42.57-102.39c-32.84-79.38-65.76-158.72-98.59-238.1C1362.65,514.52,1363.47,506,1368.24,500.17z"/>
	<path class="st1" d="M2597.69,504.65c3.65-9.27,15.07-14.32,24.44-11.05c8.33,2.36,14.28,10.81,13.94,19.43
		c0.11,4.2-1.8,8.04-3.31,11.84c-64.47,155.56-128.86,311.14-193.33,466.69c-3.4,8.85-7.67,17.39-10.56,26.41
		c-4.55-25.06-8.87-50.16-12.67-75.35C2476.79,796.67,2537.13,650.61,2597.69,504.65z"/>
	<path class="st1" d="M1094.02,645.09c6.66-4.84,16.31-4.84,23.07-0.17c4.09,2.59,6.27,7.07,8.97,10.92
		c21.84,32.82,43.74,65.59,65.71,98.32c22.04,32.95,43.87,66.04,66.09,98.88c22.54,33.7,44.88,67.53,67.54,101.15
		c-11.3,7.14-22.26,14.81-33.24,22.42c-23.19-34.14-45.92-68.58-68.85-102.89c-19.66-29.39-39.4-58.72-58.95-88.18
		c-23.5-35.4-47.34-70.57-70.82-105.98c-2.57-4.08-5.89-7.85-7.19-12.58C1083.88,659.06,1087.21,649.77,1094.02,645.09z"/>
	<path class="st1" d="M2877.85,650c5.73-8.85,18.78-11.13,27.49-5.42c9.02,5.68,11.94,18.89,5.91,27.76
		c-32.42,48.83-65.22,97.4-97.64,146.24c-43.03,64.2-85.83,128.55-128.87,192.74c-10.75-8.49-23.5-14.51-36.95-17.17
		c10.26-14.95,20.05-30.21,30.37-45.13c44.82-67.43,90.01-134.61,134.85-202.03C2834.79,714.77,2856.22,682.32,2877.85,650z"/>
	<path class="st1" d="M842.37,856.1c1.77-6.55,7.18-11.96,13.73-13.73c6.29-1.89,13.51-0.27,18.5,3.96
		c87.29,87.3,174.61,174.58,261.88,261.91c-9.01,9.81-18.4,19.28-27.06,29.42c-87.71-87.64-175.36-175.35-263.04-263.02
		C842.11,869.66,840.48,862.41,842.37,856.1z"/>
	<path class="st1" d="M3133.25,842.3c8.15-2.4,17.55,1.3,22,8.51c5.32,7.96,3.67,19.59-3.56,25.82
		c-90.06,89.94-180.01,179.99-270.02,269.97c-23.76,23.59-47.19,47.53-71.16,70.9c-6.87-11.89-13.74-23.78-20.58-35.68
		c110.78-110.84,221.63-221.6,332.4-332.44C3125.2,846.03,3128.87,843.31,3133.25,842.3z"/>
	<path class="st1" d="M647.29,1091.36c6.64-6.68,17.95-7.75,25.65-2.24c49.39,32.9,98.61,66.04,148.05,98.87
		c29.91,20.13,59.91,40.13,89.92,60.12c34.76,23.1,69.27,46.57,104.13,69.51c-1.49,17.73,0.74,35.79,6.42,52.67
		c-51.61-34.26-102.96-68.92-154.56-103.19c-72.28-48.38-144.62-96.67-216.95-144.99C639.83,1115.59,638.56,1099.56,647.29,1091.36z
		"/>
	<path class="st1" d="M3333.24,1086.29c6.74-2.04,14.45,0.16,19.43,5.07c8.77,8.21,7.5,24.24-2.65,30.77
		c-59.19,39.44-118.22,79.12-177.46,118.5c-32.64,22.08-65.53,43.78-98.28,65.68c-30.33,20.38-60.7,40.68-91.12,60.91
		c-34.78,23.15-69.39,46.56-104.21,69.65c-15.05,10.21-30.44,19.92-45.26,30.44c-8.36-11.52-19.52-21.09-32.41-27.21
		c11.12-6.54,21.59-14.2,32.34-21.36c66.28-44.04,132.31-88.47,198.57-132.53c32.64-22.03,65.47-43.79,98.22-65.65
		c29.8-19.95,59.56-39.95,89.43-59.79c33.61-22.3,66.99-44.95,100.61-67.24C3324.58,1090.92,3328.41,1087.55,3333.24,1086.29z"/>
	<path class="st1" d="M493.62,1377.79c2.3-7.94,10.12-13.75,18.36-13.84c5.37-0.43,10.18,2.29,15.02,4.17
		c158.84,65.88,317.78,131.52,476.57,197.5c-6.2,6.47-11.86,13.49-18.73,19.27c-3.95,3.91-8.05,7.66-12.26,11.3
		c-155.94-64.68-311.96-129.19-467.91-193.87C495.36,1398.66,490.3,1387.17,493.62,1377.79z"/>
	<path class="st1" d="M3478.71,1365.79c9.85-4.85,23.17-0.03,27.08,10.37c4.3,9.66-0.52,22.27-10.45,26.16
		c-179.56,74.43-359.17,148.77-538.75,223.19c-8.29,3.6-16.89,6.54-24.92,10.67c-6.75-11.77-13.53-23.53-20.33-35.27
		c33.94-14.36,68.09-28.23,102.11-42.43C3168.54,1494.27,3323.6,1429.98,3478.71,1365.79z"/>
	<path class="st1" d="M2558.78,1412.69c1.39-0.83,2.78-1.64,4.24-2.43c1.98,3.61,4.08,7.16,6.17,10.73
		c4.64,7.76,10.93,14.35,17.61,20.4c-12.75,12.87-25.55,25.7-38.44,38.42c-4.74-14.22-9.18-28.53-13.74-42.81
		C2542.74,1428.97,2550.97,1421.02,2558.78,1412.69z"/>
	<path class="st1" d="M404.18,1675.01c3.13-4.6,8.03-8.21,13.65-8.84c6.02-0.92,11.85,1.21,17.71,2.19
		c125.26,24.96,250.54,49.82,375.8,74.78c-2.24,13.68-1.57,27.76,1.71,41.23c-132.05-26.35-264.14-52.55-396.2-78.84
		c-5.35-1.21-10.39-4.47-13.02-9.37C399.93,1689.78,400.11,1681.25,404.18,1675.01z"/>
	<path class="st1" d="M3575.17,1666.23c9.75-2.07,20.26,4.19,22.91,13.82c3.64,10.7-3.69,23.48-14.9,25.48
		c-227.12,45.14-454.21,90.39-681.34,135.49c8.41-5.02,16.98-9.78,25.42-14.76c7.09-4.2,14.54-7.88,21.01-13.05
		c9.2-7.16,16.96-16.17,22.57-26.39c4.85-1.71,10.02-2.19,15.03-3.35C3182.29,1744.36,3378.74,1705.34,3575.17,1666.23z"/>
	<path class="st1" d="M2687.84,1853.98c2.67-1.49,5.13-3.56,8.11-4.4c5.89,10.17,11.99,20.53,21.03,28.29
		c-5.9,1.04-11.71,2.59-17.66,3.25C2695.45,1872.09,2691.63,1863.04,2687.84,1853.98z"/>
	<path class="st1" d="M371.36,1993.1c2.49-7.85,10.56-13.14,18.67-13.1c116.66,0,233.33,0,349.99,0
		c52.3,0.11,104.61-0.21,156.91,0.16c-22.97,13.4-46.05,26.62-69.07,39.92c-143.28-0.19-286.56-0.02-429.84-0.08
		c-5.47-0.14-11.29,0.78-16.35-1.81C372.34,2014.24,367.67,2002.43,371.36,1993.1z"/>
	<path class="st1" d="M3046.44,1980.07c185.84-0.16,371.69-0.02,557.53-0.08c5.04-0.05,10.41-0.42,14.99,2.19
		c8.69,3.95,13.02,14.97,9.96,23.9c-1.55,5.35-5.52,9.88-10.64,12.07c-5.06,2.59-10.87,1.72-16.31,1.85
		c-177.33,0.01-354.66-0.01-531.99,0.01C3062.15,2006.68,3054.31,1993.36,3046.44,1980.07z"/>
	<path class="st1" d="M3101.74,2239.58c13.8-8.32,24.91-20.78,32.02-35.2l0.32,0.73c147.99,29.51,296.01,58.9,444.02,88.35
		c3.77,0.7,7.71,1.29,11.07,3.37c8.64,4.74,12.25,16.58,8.05,25.45c-3.5,8.38-13.15,13.24-22.01,11.5
		C3417.39,2302.35,3259.56,2270.99,3101.74,2239.58z"/>
	<path class="st1" d="M416.83,2294.47c137.93-27.42,275.85-54.91,413.8-82.27c7.03,12.23,14.09,24.46,21.19,36.66
		c-139.3,27.63-278.58,55.38-417.86,83.1c-5.31,0.95-10.64,2.72-16.09,1.87c-7.78-1.04-14.45-7.26-16.24-14.86
		C398.62,2308.41,406,2296.43,416.83,2294.47z"/>
	<path class="st1" d="M1174.01,2320.48c39.34-16.4,78.7-32.76,118.14-48.91c1.85,2.09,3.71,4.19,5.47,6.38
		c-10.01-0.33-19.99,1.65-29.36,5.09c-10.08,3.79-19.11,9.74-28.45,15c-31.03,17.92-62.06,35.83-93.09,53.74
		c-7.64,4.58-15.74,8.5-22.64,14.21c-9.6,7.41-17.12,17.23-22.79,27.9c-30.19,12.75-60.56,25.11-90.82,37.73
		c-160.71,66.55-321.42,133.12-482.12,199.7c-5.27,2.04-10.46,5.12-16.32,4.74c-8.26-0.09-16.12-5.91-18.41-13.87
		c-3.3-9.35,1.71-20.79,10.97-24.47c107.92-44.77,215.9-89.42,323.84-134.18c45.81-18.84,91.46-38.09,137.36-56.72
		c20.38,7.63,43.72,7.1,63.76-1.4c8.13-3.56,15.58-8.44,23.32-12.73c31.21-18.06,62.45-36.04,93.66-54.1
		C1156.03,2333.1,1165.87,2327.96,1174.01,2320.48z"/>
	<path class="st1" d="M2935.75,2365.97c98.42,40.53,196.69,81.45,295.06,122.12c88.18,36.56,176.4,73.04,264.57,109.61
		c9.92,3.9,14.71,16.52,10.4,26.17c-3.82,10.06-16.5,14.96-26.25,10.7c-167.58-69.4-335.16-138.82-502.73-208.23
		c-3.08-1.12-5.93-3.14-9.28-3.1C2956.79,2404.23,2946.25,2385.11,2935.75,2365.97z"/>
	<path class="st1" d="M1050.45,2610.37c31.27-21.2,62.85-41.95,94.22-63.03c6.71,11.64,13.4,23.3,20.16,34.92
		c-65.74,43.75-131.27,87.8-197.02,131.53c-32.26,21.81-64.75,43.28-97.12,64.92c-30.16,20.19-60.28,40.43-90.52,60.51
		c-33.62,22.32-67.02,44.97-100.66,67.27c-4.05,2.54-7.8,5.84-12.5,7.16c-7.91,2.46-17.19-0.84-21.89-7.63
		c-4.87-6.66-4.88-16.34-0.21-23.09c2.17-3.51,5.83-5.59,9.16-7.82c33.04-21.96,66.01-44.02,98.95-66.13
		c32.56-21.77,65.26-43.33,97.69-65.28C917.36,2699.37,983.79,2654.7,1050.45,2610.37z"/>
	<path class="st1" d="M1552.06,2634.2c4.55-6.79,8.97-13.68,13.65-20.38c3.23,4.83,7.24,9.25,10.02,14.36
		C1567.61,2629.1,1559.62,2631.1,1552.06,2634.2z"/>
	<path class="st1" d="M2982.19,2632.08c24.44,16.49,49.15,32.59,73.5,49.22c66.85,44.43,133.44,89.24,200.28,133.68
		c31.25,21.12,62.71,41.91,94.05,62.89c8.83,5.73,11.17,18.88,5.3,27.52c-4.55,7.13-14.02,10.75-22.13,8.31
		c-4.58-1.21-8.25-4.35-12.15-6.84c-51.37-34.24-102.6-68.69-154.02-102.85c-32.08-21.69-64.39-43.03-96.58-64.55
		c-31.93-21.38-63.83-42.81-95.86-64.05C2977.15,2660.97,2979.67,2646.52,2982.19,2632.08z"/>
	<path class="st1" d="M1172.35,2799.38c25.77-25.65,51.29-51.55,77.22-77.03c9.64,9.97,22.16,16.94,35.37,20.97
		c-135.25,135.27-270.52,270.53-405.78,405.79c-2.86,2.85-5.55,6.16-9.48,7.59c-8.2,3.77-18.71,1.09-24.02-6.21
		c-5.65-7.17-5.35-18.31,0.71-25.12C955.02,3016.7,1063.69,2908.04,1172.35,2799.38z"/>
	<path class="st1" d="M1340.98,2950.03c21.81-32.11,43.05-64.6,64.76-96.78c7.39,13.03,14.73,26.1,22.14,39.13
		c-14.43,21.72-28.85,43.45-43.49,65.04c-44.46,66.85-89.26,133.47-133.72,200.32c-22.06,32.63-43.77,65.49-65.66,98.24
		c-20.87,31.14-41.75,62.27-62.49,93.5c-5.09,8.33-16.65,11.39-25.38,7.26c-10.5-4.48-14.91-18.76-8.79-28.4
		c18.71-28.53,37.98-56.7,56.84-85.13c21.21-31.81,42.37-63.65,63.73-95.35C1252.83,3081.85,1297.09,3016.06,1340.98,2950.03z"/>
	<path class="st1" d="M1798.74,2960.27c7.59,12.72,15.56,25.21,23.21,37.9c-38.9,194.98-77.56,390-116.42,584.99
		c-1.99,11.2-14.72,18.54-25.43,14.94c-9.64-2.61-15.87-13.15-13.88-22.88c38.4-192.69,76.68-385.42,115.02-578.13
		C1789.95,2986.44,1795.73,2973.65,1798.74,2960.27z"/>
	<path class="st1" d="M1533.77,3072.5c9.61,9.79,21.92,16.87,35.04,20.78c-55.26,133.86-110.79,267.61-166.19,401.41
		c-3.24,8.92-13.49,14.35-22.7,12.24c-8.92-1.55-15.93-9.93-15.97-18.95c-0.38-4.57,1.59-8.79,3.32-12.86
		c48.11-116.15,96.24-232.3,144.33-348.47C1518.92,3108.57,1526.84,3090.73,1533.77,3072.5z"/>
	<path class="st1" d="M3136.66,3108.67c5.4,4.81,10.27,10.17,15.51,15.17c5.65,5.18,7.58,13.76,5.24,21
		C3150.53,3132.76,3143.38,3120.83,3136.66,3108.67z"/>
	<path class="st1" d="M1980.03,3159.76c13.29,4.89,26.59,9.74,39.91,14.56c0.15,144.9-0.01,289.81,0.08,434.71
		c0.36,8.41-4.95,17.02-13.13,19.62c-9.12,3.57-20.62-0.77-24.79-9.7c-2.47-4.61-2.18-9.92-2.11-14.94
		C1980.03,3455.93,1979.96,3307.84,1980.03,3159.76z"/>
	<path class="st1" d="M2245.27,3335.95c20.87,36.27,41.9,72.45,62.73,108.75c2.24,13.83,5.5,27.48,7.97,41.28
		c5.48,27.63,11.04,55.25,16.55,82.87c0.92,4.33,2.01,8.76,1.32,13.24c-0.95,7.12-6.24,13.42-13.03,15.71
		c-8.21,3.13-18.38-0.09-23.22-7.41c-2.4-3.39-3.32-7.5-3.98-11.5C2277.46,3497.92,2261.42,3416.92,2245.27,3335.95z"/>
</g>
<circle class="st2" cx="2000" cy="2000" r="1779.06"/>
</svg>
